<svg xmlns="http://www.w3.org/2000/svg" xmlns:xlink="http://www.w3.org/1999/xlink" version="1.1" width="256" height="256" viewBox="0 0 256 256" xml:space="preserve">
<g transform="translate(1.4065934065934016 1.4065934065934016) scale(2.81 2.81)">
  <path d="M 82.592 76.137 H 7.408 C 3.323 76.137 0 72.813 0 68.729 V 21.272 c 0 -4.085 3.323 -7.408 7.408 -7.408 h 75.184 c 4.085 0 7.408 3.323 7.408 7.408 v 47.457 C 90 72.813 86.677 76.137 82.592 76.137 z M 7.408 15.864 C 4.426 15.864 2 18.29 2 21.272 v 47.457 c 0 2.982 2.426 5.408 5.408 5.408 h 75.184 c 2.982 0 5.408 -2.426 5.408 -5.408 V 21.272 c 0 -2.982 -2.426 -5.408 -5.408 -5.408 H 7.408 z" fill="#B3C0FF" stroke="#B3C0FF" stroke-width="2"/>
  <path d="M 21.719 41.216 c -3.553 0 -6.443 -2.891 -6.443 -6.444 V 32.34 c 0 -3.553 2.891 -6.444 6.443 -6.444 c 3.553 0 6.444 2.891 6.444 6.444 v 2.432 C 28.163 38.326 25.272 41.216 21.719 41.216 z M 21.719 27.896 c -2.45 0 -4.443 1.994 -4.443 4.444 v 2.432 c 0 2.45 1.993 4.444 4.443 4.444 s 4.444 -1.994 4.444 -4.444 V 32.34 C 26.163 29.89 24.169 27.896 21.719 27.896 z" fill="#B3C0FF" stroke="#B3C0FF" stroke-width="2"/>
  <path d="M 28.762 54.336 H 14.677 c -1.701 0 -3.084 -1.384 -3.084 -3.084 v -3.867 c 0 -4.11 2.456 -7.783 6.258 -9.357 l 0.559 -0.231 l 0.464 0.388 c 1.596 1.332 4.097 1.331 5.692 0 l 0.464 -0.388 l 0.559 0.231 c 3.802 1.574 6.258 5.247 6.258 9.357 v 3.867 C 31.846 52.952 30.463 54.336 28.762 54.336 z M 18.106 40.106 c -2.759 1.368 -4.514 4.167 -4.514 7.278 v 3.867 c 0 0.598 0.486 1.084 1.084 1.084 h 14.085 c 0.598 0 1.084 -0.486 1.084 -1.084 v -3.867 c 0 -3.111 -1.754 -5.91 -4.514 -7.278 C 23.208 41.545 20.232 41.545 18.106 40.106 z" fill="#B3C0FF" stroke="#B3C0FF" stroke-width="2"/>
  <path d="M 77.188 64.644 H 12.813 c -0.552 0 -1 -0.447 -1 -1 s 0.448 -1 1 -1 h 64.375 c 0.553 0 1 0.447 1 1 S 77.74 64.644 77.188 64.644 z" fill="#B3C0FF" stroke="#B3C0FF" stroke-width="2"/>
  <path d="M 77.188 52.395 H 45 c -0.552 0 -1 -0.447 -1 -1 s 0.448 -1 1 -1 h 32.188 c 0.553 0 1 0.447 1 1 S 77.74 52.395 77.188 52.395 z" fill="#B3C0FF" stroke="#B3C0FF" stroke-width="2"/>
  <path d="M 77.188 27.896 H 59.561 c -0.553 0 -1 -0.448 -1 -1 s 0.447 -1 1 -1 h 17.627 c 0.553 0 1 0.448 1 1 S 77.74 27.896 77.188 27.896 z" fill="#B3C0FF" stroke="#B3C0FF" stroke-width="2"/>
  <path d="M 51.133 27.896 H 45 c -0.552 0 -1 -0.448 -1 -1 s 0.448 -1 1 -1 h 6.133 c 0.553 0 1 0.448 1 1 S 51.686 27.896 51.133 27.896 z" fill="#B3C0FF" stroke="#B3C0FF" stroke-width="2"/>
  <path d="M 77.188 40.146 H 59.561 c -0.553 0 -1 -0.448 -1 -1 s 0.447 -1 1 -1 h 17.627 c 0.553 0 1 0.448 1 1 S 77.74 40.146 77.188 40.146 z" fill="#B3C0FF" stroke="#B3C0FF" stroke-width="2"/>
  <path d="M 51.133 40.146 H 45 c -0.552 0 -1 -0.448 -1 -1 s 0.448 -1 1 -1 h 6.133 c 0.553 0 1 0.448 1 1 S 51.686 40.146 51.133 40.146 z" fill="#B3C0FF" stroke="#B3C0FF" stroke-width="2"/>
</g>
</svg>